<svg width="49" height="24" viewBox="0 0 49 24" xmlns="http://www.w3.org/2000/svg" style="fill-rule:evenodd;clip-rule:evenodd;stroke-linejoin:round;stroke-miterlimit:2;">
    <g transform="matrix(0.019281,0,0,0.019281,0.419994,0.566452)">
        <path d="M268.102,428.396L268.102,93.26C268.102,80.842 269.341,73.395 290.452,73.395L574.672,73.395C624.327,73.395 651.632,115.602 671.497,195.032L687.631,258.343L736.032,258.343C744.711,78.379 752.151,0.181 752.151,0.181C752.151,0.181 630.521,13.83 558.531,13.83L194.888,13.83L-0.007,7.621L-0.007,59.753L65.789,72.163C111.712,80.857 122.861,90.775 126.614,132.989C126.614,132.989 130.346,257.104 130.346,461.91C130.346,666.686 126.614,789.577 126.614,789.577C126.614,826.807 111.712,840.455 65.789,849.171L-0.007,861.588L-0.007,913.691L194.888,907.497L520.077,907.497C593.306,907.497 763.344,913.691 763.344,913.691C767.053,868.999 791.895,666.686 795.619,644.373L749.695,644.373L701.287,754.839C662.803,841.701 606.962,847.918 544.89,847.918L359.942,847.918C297.877,847.918 268.087,823.09 268.087,769.726L268.087,486.73C268.087,486.73 403.373,486.73 450.528,490.461C485.288,492.953 506.377,502.878 517.563,551.279L532.465,615.822L585.807,615.822L582.098,453.209L589.538,289.386L536.181,289.386L518.816,361.369C507.63,408.531 500.198,417.24 451.782,422.187C397.179,428.411 268.08,427.165 268.08,427.165L268.08,428.396L268.102,428.396ZM1004.12,128.019C986.739,204.972 969.359,264.544 908.541,304.266C871.311,329.079 834.066,337.758 819.193,339.004L819.193,386.167L929.652,386.167L929.652,767.205C929.652,873.962 1000.41,926.101 1094.73,926.101C1167.96,926.101 1243.66,895.073 1269.74,830.516L1243.66,797.002C1231.25,818.113 1191.55,849.134 1141.9,849.134C1087.3,849.134 1057.51,811.889 1057.51,717.579L1057.51,381.226L1241.21,394.89L1251.13,310.468L1057.51,317.923L1057.51,129.251L1004.12,128.019ZM1396.34,714.114L1349.18,715.352C1351.66,742.65 1352.91,777.417 1352.91,809.685C1352.91,843.198 1351.67,874.227 1349.18,889.115C1349.18,889.115 1443.51,923.838 1539.08,923.838C1668.17,923.838 1771.19,861.78 1771.19,740.143C1771.19,531.65 1458.41,562.687 1458.41,422.409C1458.41,364.082 1510.54,341.732 1567.63,341.732C1612.32,341.732 1649.55,357.866 1657,381.47L1688.03,474.556L1733.96,472.078C1737.69,422.423 1740.17,365.328 1747.62,319.412C1707.89,302.032 1624.72,292.085 1572.63,292.085C1450.97,292.085 1352.93,345.464 1352.93,464.623C1352.93,671.892 1658.25,629.692 1658.25,782.38C1658.25,836.968 1624.72,875.451 1549.03,875.451C1479.54,875.451 1444.77,839.467 1431.15,803.454L1396.34,714.114ZM2144.43,857.503C2072.57,1058.22 1984.61,1110.22 1905.33,1110.22C1871.86,1110.22 1855.77,1095.34 1850.79,1071.84L1832.21,975.181L1780.17,977.658C1770.26,1034.66 1760.35,1097.87 1746.74,1149.89C1777.71,1173.39 1829.72,1185.81 1870.62,1185.81C1956.13,1185.81 2086.2,1174.64 2205.12,892.182L2404.6,421.406C2420.72,382.989 2426.89,379.272 2473.97,360.676L2499.99,350.787L2499.99,307.422L2382.29,313.616L2255.92,307.422L2255.92,350.787L2288.12,360.676C2320.32,370.608 2335.21,382.989 2335.21,405.294C2335.21,416.436 2331.48,427.592 2325.27,444.921C2306.69,492.031 2191.47,772.012 2160.53,831.496L2191.46,820.325C2136.94,685.29 2053.97,459.786 2041.57,421.413C2039.09,413.973 2037.85,407.779 2037.85,401.556C2037.85,381.742 2051.48,365.631 2081.22,359.444L2122.1,350.795L2122.1,307.43L1952.35,313.624L1817.32,307.43L1817.32,350.795L1839.62,358.22C1870.59,368.13 1878.03,376.809 1896.61,420.167C1999.41,655.574 2047.76,784.4 2113.39,952.912L2144.43,857.503Z" style="fill:rgb(204,204,204);fill-rule:nonzero;"/>
    </g>
</svg>
