<svg width="24" height="24" viewBox="0 0 24 24" version="1.1" xmlns="http://www.w3.org/2000/svg" style="fill-rule:evenodd;clip-rule:evenodd;stroke-linejoin:round;stroke-miterlimit:2;" class="feather">
    <g transform="matrix(0.0432725,0,0,0.0432725,-0.0439644,1.7626)">
        <path d="M548.817,306.113L390.427,18.185C381.277,1.556 357.383,1.556 348.236,18.185L278.33,145.264L366.813,306.113C368.669,309.417 369.529,313.19 369.29,316.972C368.569,327.701 358.872,337.131 345.729,337.136L345.74,337.136C345.732,337.136 345.726,337.139 345.717,337.139L317.073,337.139L317.073,446.936C317.073,458.188 326.332,467.447 337.584,467.447L401.08,467.447C412.332,467.447 421.591,458.188 421.591,446.936L421.591,337.136L527.72,337.136C545.253,337.136 556.657,320.366 548.817,306.113Z" style="fill:rgb(204,204,204);fill-rule:nonzero;"/>
    </g>
    <g transform="matrix(0.0432725,0,0,0.0432725,-0.0439644,1.7626)">
        <path d="M208.421,18.185C199.274,1.556 175.38,1.556 166.231,18.185L7.84,306.113C0,320.366 11.404,337.136 28.936,337.136L135.067,337.136L135.067,446.936C135.067,458.188 144.326,467.446 155.577,467.447L219.073,467.447C230.325,467.447 239.584,458.188 239.584,446.936L239.584,337.139L210.94,337.139C210.932,337.139 210.926,337.136 210.917,337.136L210.928,337.136C197.785,337.131 188.088,327.701 187.367,316.972C187.128,313.19 187.988,309.418 189.844,306.113L278.328,145.264L208.421,18.185Z" style="fill:rgb(204,204,204);fill-rule:nonzero;"/>
    </g>
</svg>
